<svg xmlns="http://www.w3.org/2000/svg" xmlns:xlink="http://www.w3.org/1999/xlink" width="2000" zoomAndPan="magnify" viewBox="0 0 1500 1499.999933" height="2000" preserveAspectRatio="xMidYMid meet" version="1.0"><defs><g/><clipPath id="0b87d760cb"><rect x="0" width="958" y="0" height="200"/></clipPath><clipPath id="d846eabc57"><path d="M 0.960938 31 L 522 31 L 522 553.800781 L 0.960938 553.800781 Z M 0.960938 31 " clip-rule="nonzero"/></clipPath><clipPath id="8a3f0e2212"><path d="M 0.960938 0.839844 L 525 0.839844 L 525 523 L 0.960938 523 Z M 0.960938 0.839844 " clip-rule="nonzero"/></clipPath><clipPath id="daad91d616"><rect x="0" width="554" y="0" height="554"/></clipPath><clipPath id="6abd97f813"><path d="M 33 0.960938 L 556.039062 0.960938 L 556.039062 526 L 33 526 Z M 33 0.960938 " clip-rule="nonzero"/></clipPath><clipPath id="1caf278f6c"><path d="M 30 32 L 556.039062 32 L 556.039062 556.558594 L 30 556.558594 Z M 30 32 " clip-rule="nonzero"/></clipPath><clipPath id="b7e6e4cee3"><rect x="0" width="557" y="0" height="557"/></clipPath></defs><rect x="-150" width="1800" fill="#ffffff" y="-149.999993" height="1799.99992" fill-opacity="1"/><rect x="-150" width="1800" fill="#1b1b1b" y="-149.999993" height="1799.99992" fill-opacity="1"/><g transform="matrix(1, 0, 0, 1, 267, 650)"><g clip-path="url(#0b87d760cb)"><g fill="#ffffff" fill-opacity="1"><g transform="translate(1.180363, 142.910075)"><g><path d="M 44.84375 -83.65625 C 49.488281 -83.65625 54.082031 -83.125 58.625 -82.0625 C 63.164062 -81.007812 66.546875 -79.957031 68.765625 -78.90625 L 72.09375 -77.3125 L 62.90625 -58.9375 C 56.5625 -62.320312 50.539062 -64.015625 44.84375 -64.015625 C 41.664062 -64.015625 39.414062 -63.671875 38.09375 -62.984375 C 36.78125 -62.296875 36.125 -61 36.125 -59.09375 C 36.125 -58.675781 36.175781 -58.253906 36.28125 -57.828125 C 36.382812 -57.410156 36.59375 -57.015625 36.90625 -56.640625 C 37.226562 -56.273438 37.519531 -55.957031 37.78125 -55.6875 C 38.050781 -55.425781 38.5 -55.132812 39.125 -54.8125 C 39.757812 -54.5 40.257812 -54.265625 40.625 -54.109375 C 41 -53.953125 41.609375 -53.710938 42.453125 -53.390625 C 43.304688 -53.078125 43.941406 -52.835938 44.359375 -52.671875 C 44.785156 -52.515625 45.5 -52.273438 46.5 -51.953125 C 47.5 -51.640625 48.265625 -51.429688 48.796875 -51.328125 C 52.066406 -50.378906 54.914062 -49.320312 57.34375 -48.15625 C 59.78125 -47 62.34375 -45.414062 65.03125 -43.40625 C 67.726562 -41.40625 69.816406 -38.875 71.296875 -35.8125 C 72.773438 -32.75 73.515625 -29.257812 73.515625 -25.34375 C 73.515625 -6.863281 60.679688 2.375 35.015625 2.375 C 29.203125 2.375 23.679688 1.476562 18.453125 -0.3125 C 13.222656 -2.113281 9.445312 -3.910156 7.125 -5.703125 L 3.640625 -8.5625 L 15.046875 -27.71875 C 15.890625 -26.988281 17 -26.117188 18.375 -25.109375 C 19.75 -24.109375 22.234375 -22.734375 25.828125 -20.984375 C 29.421875 -19.242188 32.535156 -18.375 35.171875 -18.375 C 40.984375 -18.375 43.890625 -20.328125 43.890625 -24.234375 C 43.890625 -26.035156 43.148438 -27.4375 41.671875 -28.4375 C 40.191406 -29.4375 37.679688 -30.570312 34.140625 -31.84375 C 30.597656 -33.113281 27.828125 -34.273438 25.828125 -35.328125 C 20.753906 -37.972656 16.738281 -40.957031 13.78125 -44.28125 C 10.820312 -47.613281 9.34375 -52.023438 9.34375 -57.515625 C 9.34375 -65.753906 12.535156 -72.171875 18.921875 -76.765625 C 25.316406 -81.359375 33.957031 -83.65625 44.84375 -83.65625 Z M 44.84375 -83.65625 "/></g></g></g><g fill="#ffffff" fill-opacity="1"><g transform="translate(69.625344, 142.910075)"><g><path d="M 14.265625 -81.28125 L 14.265625 -111.546875 L 42.296875 -111.546875 L 42.296875 -81.28125 L 59.40625 -81.28125 L 59.40625 -59.890625 L 42.296875 -59.890625 L 42.296875 -34.0625 C 42.296875 -26.5625 44.410156 -22.8125 48.640625 -22.8125 C 49.691406 -22.8125 50.796875 -23.019531 51.953125 -23.4375 C 53.117188 -23.863281 54.019531 -24.289062 54.65625 -24.71875 L 55.609375 -25.34375 L 62.578125 -2.6875 C 56.554688 0.6875 49.691406 2.375 41.984375 2.375 C 36.703125 2.375 32.160156 1.453125 28.359375 -0.390625 C 24.554688 -2.242188 21.675781 -4.726562 19.71875 -7.84375 C 17.769531 -10.957031 16.375 -14.226562 15.53125 -17.65625 C 14.6875 -21.09375 14.265625 -24.765625 14.265625 -28.671875 L 14.265625 -59.890625 L 2.53125 -59.890625 L 2.53125 -81.28125 Z M 14.265625 -81.28125 "/></g></g></g><g fill="#ffffff" fill-opacity="1"><g transform="translate(122.701892, 142.910075)"><g><path d="M 91.734375 -36.75 L 32.796875 -36.75 C 32.796875 -31.050781 34.644531 -26.828125 38.34375 -24.078125 C 42.039062 -21.335938 46.054688 -19.96875 50.390625 -19.96875 C 54.929688 -19.96875 58.519531 -20.570312 61.15625 -21.78125 C 63.800781 -23 66.8125 -25.40625 70.1875 -29 L 90.46875 -18.859375 C 82.019531 -4.703125 67.972656 2.375 48.328125 2.375 C 36.066406 2.375 25.550781 -1.820312 16.78125 -10.21875 C 8.019531 -18.613281 3.640625 -28.726562 3.640625 -40.5625 C 3.640625 -52.394531 8.019531 -62.535156 16.78125 -70.984375 C 25.550781 -79.429688 36.066406 -83.65625 48.328125 -83.65625 C 61.210938 -83.65625 71.691406 -79.929688 79.765625 -72.484375 C 87.847656 -65.035156 91.890625 -54.394531 91.890625 -40.5625 C 91.890625 -38.65625 91.835938 -37.382812 91.734375 -36.75 Z M 33.59375 -52.28125 L 64.484375 -52.28125 C 63.847656 -56.507812 62.179688 -59.757812 59.484375 -62.03125 C 56.796875 -64.300781 53.335938 -65.4375 49.109375 -65.4375 C 44.460938 -65.4375 40.765625 -64.21875 38.015625 -61.78125 C 35.273438 -59.351562 33.800781 -56.1875 33.59375 -52.28125 Z M 33.59375 -52.28125 "/></g></g></g><g fill="#ffffff" fill-opacity="1"><g transform="translate(208.733422, 142.910075)"><g><path d="M 14.265625 -81.28125 L 14.265625 -98.546875 C 14.367188 -110.691406 17.21875 -120.40625 22.8125 -127.6875 C 28.414062 -134.976562 36.179688 -138.625 46.109375 -138.625 C 50.328125 -138.625 54.363281 -138.015625 58.21875 -136.796875 C 62.082031 -135.585938 64.859375 -134.351562 66.546875 -133.09375 L 69.234375 -131.34375 L 59.40625 -111.546875 C 56.875 -113.023438 54.078125 -113.765625 51.015625 -113.765625 C 47.523438 -113.765625 45.195312 -112.570312 44.03125 -110.1875 C 42.875 -107.8125 42.296875 -103.664062 42.296875 -97.75 L 42.296875 -81.28125 L 61 -81.28125 L 61 -59.890625 L 42.296875 -59.890625 L 42.296875 0 L 14.265625 0 L 14.265625 -59.890625 L 2.53125 -59.890625 L 2.53125 -81.28125 Z M 14.265625 -81.28125 "/></g></g></g><g fill="#ffffff" fill-opacity="1"><g transform="translate(258.641222, 142.910075)"><g><path d="M 15.046875 -10.0625 C 7.441406 -18.351562 3.640625 -28.519531 3.640625 -40.5625 C 3.640625 -52.601562 7.441406 -62.796875 15.046875 -71.140625 C 22.648438 -79.484375 32.316406 -83.65625 44.046875 -83.65625 C 54.816406 -83.65625 63.6875 -80.273438 70.65625 -73.515625 L 70.65625 -81.28125 L 98.703125 -81.28125 L 98.703125 0 L 70.984375 0 L 70.984375 -9.1875 L 70.65625 -9.1875 C 63.6875 -1.476562 54.816406 2.375 44.046875 2.375 C 32.316406 2.375 22.648438 -1.769531 15.046875 -10.0625 Z M 38.890625 -54.34375 C 35.253906 -50.75 33.4375 -46.148438 33.4375 -40.546875 C 33.4375 -34.953125 35.175781 -30.382812 38.65625 -26.84375 C 42.144531 -23.3125 46.738281 -21.546875 52.4375 -21.546875 C 57.9375 -21.546875 62.453125 -23.34375 65.984375 -26.9375 C 69.523438 -30.53125 71.296875 -35.070312 71.296875 -40.5625 C 71.296875 -46.15625 69.472656 -50.75 65.828125 -54.34375 C 62.179688 -57.9375 57.71875 -59.734375 52.4375 -59.734375 C 47.050781 -59.734375 42.535156 -57.9375 38.890625 -54.34375 Z M 38.890625 -54.34375 "/></g></g></g><g fill="#ffffff" fill-opacity="1"><g transform="translate(357.347766, 142.910075)"><g><path d="M 9.5 0 L 9.5 -81.28125 L 37.546875 -81.28125 L 37.546875 -72.71875 L 37.859375 -72.71875 C 45.148438 -80.007812 52.914062 -83.65625 61.15625 -83.65625 C 65.164062 -83.65625 69.148438 -83.125 73.109375 -82.0625 C 77.078125 -81.007812 80.882812 -79.375 84.53125 -77.15625 C 88.175781 -74.9375 91.132812 -71.789062 93.40625 -67.71875 C 95.675781 -63.65625 96.8125 -58.929688 96.8125 -53.546875 L 96.8125 0 L 68.765625 0 L 68.765625 -45.953125 C 68.765625 -50.171875 67.414062 -53.863281 64.71875 -57.03125 C 62.03125 -60.207031 58.519531 -61.796875 54.1875 -61.796875 C 49.957031 -61.796875 46.125 -60.15625 42.6875 -56.875 C 39.257812 -53.601562 37.546875 -49.960938 37.546875 -45.953125 L 37.546875 0 Z M 9.5 0 "/></g></g></g><g fill="#ffffff" fill-opacity="1"><g transform="translate(452.568685, 142.910075)"><g><path d="M 27.5625 -33.90625 C 32.632812 -33.90625 36.9375 -32.132812 40.46875 -28.59375 C 44.007812 -25.0625 45.78125 -20.757812 45.78125 -15.6875 C 45.78125 -10.71875 44.007812 -6.460938 40.46875 -2.921875 C 36.9375 0.609375 32.632812 2.375 27.5625 2.375 C 22.601562 2.375 18.351562 0.609375 14.8125 -2.921875 C 11.269531 -6.460938 9.5 -10.71875 9.5 -15.6875 C 9.5 -20.757812 11.269531 -25.0625 14.8125 -28.59375 C 18.351562 -32.132812 22.601562 -33.90625 27.5625 -33.90625 Z M 27.5625 -33.90625 "/></g></g></g><g fill="#50fa7b" fill-opacity="1"><g transform="translate(498.360586, 142.910075)"><g><path d="M 52.765625 -60.6875 C 47.484375 -60.6875 42.941406 -58.726562 39.140625 -54.8125 C 35.335938 -50.90625 33.4375 -46.207031 33.4375 -40.71875 C 33.4375 -35.125 35.335938 -30.367188 39.140625 -26.453125 C 42.941406 -22.546875 47.484375 -20.59375 52.765625 -20.59375 C 55.296875 -20.59375 57.695312 -20.910156 59.96875 -21.546875 C 62.238281 -22.179688 63.898438 -22.816406 64.953125 -23.453125 L 66.390625 -24.40625 L 75.890625 -4.90625 C 75.148438 -4.382812 74.117188 -3.726562 72.796875 -2.9375 C 71.484375 -2.144531 68.472656 -1.0625 63.765625 0.3125 C 59.066406 1.6875 54.023438 2.375 48.640625 2.375 C 36.703125 2.375 26.21875 -1.820312 17.1875 -10.21875 C 8.15625 -18.613281 3.640625 -28.675781 3.640625 -40.40625 C 3.640625 -52.226562 8.15625 -62.390625 17.1875 -70.890625 C 26.21875 -79.398438 36.703125 -83.65625 48.640625 -83.65625 C 54.023438 -83.65625 58.988281 -83.019531 63.53125 -81.75 C 68.070312 -80.488281 71.296875 -79.222656 73.203125 -77.953125 L 75.890625 -76.046875 L 66.390625 -56.875 C 62.898438 -59.414062 58.359375 -60.6875 52.765625 -60.6875 Z M 52.765625 -60.6875 "/></g></g></g><g fill="#50fa7b" fill-opacity="1"><g transform="translate(566.647128, 142.910075)"><g><path d="M 17.1875 -9.65625 C 8.15625 -17.6875 3.640625 -27.984375 3.640625 -40.546875 C 3.640625 -53.117188 8.335938 -63.445312 17.734375 -71.53125 C 27.140625 -79.613281 38.757812 -83.65625 52.59375 -83.65625 C 66.226562 -83.65625 77.71875 -79.585938 87.0625 -71.453125 C 96.40625 -63.316406 101.078125 -53.015625 101.078125 -40.546875 C 101.078125 -28.085938 96.507812 -17.816406 87.375 -9.734375 C 78.238281 -1.660156 66.644531 2.375 52.59375 2.375 C 38.019531 2.375 26.21875 -1.632812 17.1875 -9.65625 Z M 38.890625 -54.34375 C 35.253906 -50.75 33.4375 -46.148438 33.4375 -40.546875 C 33.4375 -34.953125 35.175781 -30.382812 38.65625 -26.84375 C 42.144531 -23.3125 46.738281 -21.546875 52.4375 -21.546875 C 57.9375 -21.546875 62.453125 -23.34375 65.984375 -26.9375 C 69.523438 -30.53125 71.296875 -35.070312 71.296875 -40.5625 C 71.296875 -46.15625 69.472656 -50.75 65.828125 -54.34375 C 62.179688 -57.9375 57.71875 -59.734375 52.4375 -59.734375 C 47.050781 -59.734375 42.535156 -57.9375 38.890625 -54.34375 Z M 38.890625 -54.34375 "/></g></g></g><g fill="#50fa7b" fill-opacity="1"><g transform="translate(661.868035, 142.910075)"><g><path d="M 15.046875 -10.0625 C 7.441406 -18.351562 3.640625 -28.519531 3.640625 -40.5625 C 3.640625 -52.601562 7.441406 -62.796875 15.046875 -71.140625 C 22.648438 -79.484375 32.316406 -83.65625 44.046875 -83.65625 C 54.816406 -83.65625 63.6875 -80.273438 70.65625 -73.515625 L 70.65625 -136.25 L 98.703125 -136.25 L 98.703125 0 L 70.984375 0 L 70.984375 -9.1875 L 70.65625 -9.1875 C 63.6875 -1.476562 54.816406 2.375 44.046875 2.375 C 32.316406 2.375 22.648438 -1.769531 15.046875 -10.0625 Z M 38.890625 -54.34375 C 35.253906 -50.75 33.4375 -46.148438 33.4375 -40.546875 C 33.4375 -34.953125 35.175781 -30.382812 38.65625 -26.84375 C 42.144531 -23.3125 46.738281 -21.546875 52.4375 -21.546875 C 57.9375 -21.546875 62.453125 -23.34375 65.984375 -26.9375 C 69.523438 -30.53125 71.296875 -35.070312 71.296875 -40.5625 C 71.296875 -46.15625 69.472656 -50.75 65.828125 -54.34375 C 62.179688 -57.9375 57.71875 -59.734375 52.4375 -59.734375 C 47.050781 -59.734375 42.535156 -57.9375 38.890625 -54.34375 Z M 38.890625 -54.34375 "/></g></g></g><g fill="#50fa7b" fill-opacity="1"><g transform="translate(760.574579, 142.910075)"><g><path d="M 91.734375 -36.75 L 32.796875 -36.75 C 32.796875 -31.050781 34.644531 -26.828125 38.34375 -24.078125 C 42.039062 -21.335938 46.054688 -19.96875 50.390625 -19.96875 C 54.929688 -19.96875 58.519531 -20.570312 61.15625 -21.78125 C 63.800781 -23 66.8125 -25.40625 70.1875 -29 L 90.46875 -18.859375 C 82.019531 -4.703125 67.972656 2.375 48.328125 2.375 C 36.066406 2.375 25.550781 -1.820312 16.78125 -10.21875 C 8.019531 -18.613281 3.640625 -28.726562 3.640625 -40.5625 C 3.640625 -52.394531 8.019531 -62.535156 16.78125 -70.984375 C 25.550781 -79.429688 36.066406 -83.65625 48.328125 -83.65625 C 61.210938 -83.65625 71.691406 -79.929688 79.765625 -72.484375 C 87.847656 -65.035156 91.890625 -54.394531 91.890625 -40.5625 C 91.890625 -38.65625 91.835938 -37.382812 91.734375 -36.75 Z M 33.59375 -52.28125 L 64.484375 -52.28125 C 63.847656 -56.507812 62.179688 -59.757812 59.484375 -62.03125 C 56.796875 -64.300781 53.335938 -65.4375 49.109375 -65.4375 C 44.460938 -65.4375 40.765625 -64.21875 38.015625 -61.78125 C 35.273438 -59.351562 33.800781 -56.1875 33.59375 -52.28125 Z M 33.59375 -52.28125 "/></g></g></g><g fill="#ffffff" fill-opacity="1"><g transform="translate(846.618826, 142.910075)"><g><path d="M 54.65625 33.4375 L 36.4375 41.1875 C 35.695312 40.238281 34.691406 38.921875 33.421875 37.234375 C 32.160156 35.546875 29.941406 31.796875 26.765625 25.984375 C 23.597656 20.171875 20.800781 14.066406 18.375 7.671875 C 15.945312 1.285156 13.726562 -6.867188 11.71875 -16.796875 C 9.71875 -26.722656 8.71875 -36.8125 8.71875 -47.0625 C 8.71875 -57.625 9.742188 -67.972656 11.796875 -78.109375 C 13.859375 -88.242188 16.367188 -96.796875 19.328125 -103.765625 C 22.285156 -110.742188 25.21875 -116.976562 28.125 -122.46875 C 31.03125 -127.957031 33.484375 -132.023438 35.484375 -134.671875 L 38.65625 -138.625 L 56.875 -130.875 C 56.238281 -130.132812 55.421875 -129.050781 54.421875 -127.625 C 53.421875 -126.195312 51.648438 -122.894531 49.109375 -117.71875 C 46.578125 -112.539062 44.304688 -106.992188 42.296875 -101.078125 C 40.296875 -95.160156 38.503906 -87.316406 36.921875 -77.546875 C 35.335938 -67.785156 34.546875 -57.625 34.546875 -47.0625 C 34.546875 -37.019531 35.226562 -27.40625 36.59375 -18.21875 C 37.96875 -9.03125 39.65625 -1.453125 41.65625 4.515625 C 43.664062 10.484375 45.648438 15.765625 47.609375 20.359375 C 49.566406 24.953125 51.226562 28.304688 52.59375 30.421875 Z M 54.65625 33.4375 "/></g></g></g><g fill="#ffffff" fill-opacity="1"><g transform="translate(900.96287, 142.910075)"><g><path d="M 27.40625 41.1875 L 9.1875 33.4375 C 9.71875 32.695312 10.429688 31.613281 11.328125 30.1875 C 12.222656 28.757812 13.832031 25.535156 16.15625 20.515625 C 18.476562 15.492188 20.535156 10.128906 22.328125 4.421875 C 24.128906 -1.273438 25.742188 -8.769531 27.171875 -18.0625 C 28.597656 -27.351562 29.3125 -37.019531 29.3125 -47.0625 C 29.3125 -57.625 28.546875 -67.734375 27.015625 -77.390625 C 25.484375 -87.054688 23.609375 -95.003906 21.390625 -101.234375 C 19.171875 -107.472656 16.976562 -112.914062 14.8125 -117.5625 C 12.644531 -122.207031 10.769531 -125.585938 9.1875 -127.703125 L 6.96875 -130.875 L 25.1875 -138.625 C 26.03125 -137.675781 27.113281 -136.300781 28.4375 -134.5 C 29.757812 -132.707031 32.132812 -128.773438 35.5625 -122.703125 C 39 -116.628906 42.035156 -110.265625 44.671875 -103.609375 C 47.316406 -96.960938 49.722656 -88.515625 51.890625 -78.265625 C 54.054688 -68.023438 55.140625 -57.625 55.140625 -47.0625 C 55.140625 -36.8125 54.1875 -26.773438 52.28125 -16.953125 C 50.382812 -7.128906 48.0625 1.132812 45.3125 7.84375 C 42.5625 14.550781 39.835938 20.519531 37.140625 25.75 C 34.453125 30.976562 32.160156 34.859375 30.265625 37.390625 Z M 27.40625 41.1875 "/></g></g></g></g></g><g transform="matrix(1, 0, 0, 1, 84, 471)"><g clip-path="url(#daad91d616)"><g clip-path="url(#d846eabc57)"><path stroke-linecap="butt" transform="matrix(2.93959, 2.93959, -2.93959, 2.93959, 52.735128, 252.256324)" fill="none" stroke-linejoin="miter" d="M 0.00012509 4.999483 L 84.432724 5.000148 " stroke="#bd93f9" stroke-width="10" stroke-opacity="1" stroke-miterlimit="4"/></g><g clip-path="url(#8a3f0e2212)"><path stroke-linecap="butt" transform="matrix(-2.93959, 2.93959, -2.93959, -2.93959, 303.932345, 59.820755)" fill="none" stroke-linejoin="miter" d="M -0.000287726 5.000294 L 82.463632 5.000294 " stroke="#bd93f9" stroke-width="10" stroke-opacity="1" stroke-miterlimit="4"/></g></g></g><g transform="matrix(1, 0, 0, 1, 859, 474)"><g clip-path="url(#b7e6e4cee3)"><g clip-path="url(#6abd97f813)"><path stroke-linecap="butt" transform="matrix(-2.952962, -2.952962, 2.952962, -2.952962, 504.126332, 303.996124)" fill="none" stroke-linejoin="miter" d="M 0.00023068 5.000056 L 84.433475 5.000056 " stroke="#bd93f9" stroke-width="10" stroke-opacity="1" stroke-miterlimit="4"/></g><g clip-path="url(#1caf278f6c)"><path stroke-linecap="butt" transform="matrix(2.952961, -2.952961, 2.952961, 2.952961, 251.786499, 497.306968)" fill="none" stroke-linejoin="miter" d="M 0.000158792 4.999664 L 82.463062 5.000325 " stroke="#bd93f9" stroke-width="10" stroke-opacity="1" stroke-miterlimit="4"/></g></g></g></svg>